PathFileType	4	(X/Y/Z)	walk-thru1-4-TP.trc
DataRate	CameraRate	NumFrames	NumMarkers	Units	OrigDataRate	OrigDataStartFrame	OrigNumFrames
120.00	120.00	       4	60	mm	120.00	435	       497
Frame#	Time	Top.Head			Front.Head			Rear.Head			Jaw			C7			R.Clavicle			L.Clavicle			R.Shoulder			L.Shoulder			R.Scapula			L.Scapula			R.Scap.Inf			R.Biceps.Lateral			R.Elbow			R.Elbow.Medial			R.Forearm			R.Ulna			R.Radius			R.Wrist			R.Thumb.M1			R.Thumb.M2			R.Thumb.M3			R.Finger3.M1			R.Finger3.M2			R.Finger3.M3			L.Biceps.Lateral			L.Elbow			L.Elbow.Medial			L.Forearm			L.Ulna			L.Radius			L.Wrist			L.Thumb.M1			L.Thumb.M2			L.Thumb.M3			L.Finger3.M1			L.Finger3.M2			L.Finger3.M3			V.Sacral			R.ASIS			L.ASIS			R.Thigh			R.Thigh.Front			R.Knee			R.Knee.Medial			R.Shank			R.Ankle			R.Ankle.Medial			R.Heel			R.Toe			R.MedFoot			L.Thigh			L.Knee			L.Knee.Medial			L.Shank			L.Ankle			L.Ankle.Medial			L.Heel			L.Toe			L.MedFoot			V_mid_ASIS			V_R_Knee_JC			V_L_Knee_JC			V_R_Elbow_JC			V_L_Elbow_JC			V_R_Ankle_JC			V_L_Ankle_JC			V_R_Wrist_JC			V_L_Wrist_JC			V_R_ScaTrpz_1stMC_JC			V_R_1stMC_1stPP_JC			V_R_1stPP_1stDP_JC			V_R_LunCap_3rdMC_JC			V_R_3rdMC_3rdPP_JC			V_R_3rdPP_3rdMP_JC			V_R_3rdMP_3rdDP_JC			V_L_ScaTrpz_1stMC_JC			V_L_1stMC_1stPP_JC			V_L_1stPP_1stDP_JC			V_L_LunCap_3rdMC_JC			V_L_3rdMC_3rdPP_JC			V_L_3rdPP_3rdMP_JC			V_L_3rdMP_3rdPP_JC			V_ROOT_JC			V_R_Hip_JC			V_L_Hip_JC			V_R_GlenHum_JC			V_L_GlenHum_JC			V_ForeHead_Ctr			V_Vertex			V_Sagit_Lambdoid_Suture			V_R_FrontoTemp			V_L_FrontoTemporal			V_R_ParietalOccip			V_L_ParietalOcciptal			V_R_Temporal			V_L_Temporal			V_mid_FrontRearHead			V_mid_RLGlenHumCtrs			V_C7_vert			V_C1_vert			V_Mid_Hip			
		X1	Y1	Z1	X2	Y2	Z2	X3	Y3	Z3	X4	Y4	Z4	X5	Y5	Z5	X6	Y6	Z6	X7	Y7	Z7	X8	Y8	Z8	X9	Y9	Z9	X10	Y10	Z10	X11	Y11	Z11	X12	Y12	Z12	X13	Y13	Z13	X14	Y14	Z14	X15	Y15	Z15	X16	Y16	Z16	X17	Y17	Z17	X18	Y18	Z18	X19	Y19	Z19	X20	Y20	Z20	X21	Y21	Z21	X22	Y22	Z22	X23	Y23	Z23	X24	Y24	Z24	X25	Y25	Z25	X26	Y26	Z26	X27	Y27	Z27	X28	Y28	Z28	X29	Y29	Z29	X30	Y30	Z30	X31	Y31	Z31	X32	Y32	Z32	X33	Y33	Z33	X34	Y34	Z34	X35	Y35	Z35	X36	Y36	Z36	X37	Y37	Z37	X38	Y38	Z38	X39	Y39	Z39	X40	Y40	Z40	X41	Y41	Z41	X42	Y42	Z42	X43	Y43	Z43	X44	Y44	Z44	X45	Y45	Z45	X46	Y46	Z46	X47	Y47	Z47	X48	Y48	Z48	X49	Y49	Z49	X50	Y50	Z50	X51	Y51	Z51	X52	Y52	Z52	X53	Y53	Z53	X54	Y54	Z54	X55	Y55	Z55	X56	Y56	Z56	X57	Y57	Z57	X58	Y58	Z58	X59	Y59	Z59	X60	Y60	Z60	

435	3.617	1510.72302	29.73255	1561.22144	1609.39941	25.63665	1457.84851	1396.15759	23.11067	1482.84607	1576.32703	10.64197	1318.10291	1378.83960	4.83560	1371.34180	1457.05078	-105.34460	1282.35083	1477.25037	109.24047	1291.47620	1405.44531	-180.22858	1277.95471	1431.40527	204.17561	1292.29944	1325.92444	-77.47668	1294.55774	1332.10376	106.56037	1296.97205	1280.33362	-60.65561	1213.21460	1434.41882	-236.53691	1140.06946	1416.25146	-267.92264	979.39740	1388.91187	-197.08783	957.12573	1501.79858	-259.92328	915.38202	1485.37671	-289.07611	828.31763	1558.22083	-245.95605	791.21576	1558.16699	-288.32547	757.90179	1590.93030	-249.40108	745.56293	1608.82922	-234.89865	714.03046	1624.70032	-223.55209	676.64874	1589.40137	-303.82953	687.99780	1598.94897	-285.61008	639.52142	1592.87769	-268.23889	601.89240	1413.38281	267.86063	1149.51953	1366.22791	284.28741	1004.78827	1342.54797	205.96861	994.99817	1453.91272	263.20560	944.40869	1451.18445	299.91403	853.95300	1501.03955	240.50357	814.45746	1515.50903	288.19958	790.52325	1532.95361	242.25261	780.92157	1545.78760	219.47932	747.24823	1554.38062	209.21790	696.89722	1548.13293	284.92245	707.64673	1555.50769	276.79303	669.99390	1552.15405	256.97101	628.01154	1267.69958	17.07527	900.24957	1461.11267	-140.35385	969.66650	1451.64465	178.72887	951.99194	1487.06079	-155.97522	579.02563	1559.77905	-77.00241	498.95145	1510.89563	-112.00134	445.36017	1514.25793	-0.09034	444.37082	1507.64050	-53.15285	273.34921	1424.90796	-58.93173	61.21444	1444.91138	31.44887	83.20379	1368.62354	0.23666	38.93806	1567.86658	-36.74256	39.15909	1513.87097	6.84152	65.38444	1517.87146	218.62210	591.21252	1570.53259	202.51222	455.51062	1587.17126	80.36748	435.98984	1489.63867	143.75502	272.47516	1339.80823	161.56866	132.37035	1366.18286	73.68218	142.19444	1279.32886	108.32580	132.56682	1455.97961	124.40736	51.59416	1422.54016	92.30090	90.29223																																																																																																																															
436	3.625	1513.57117	29.23980	1561.40271	1613.65369	26.48199	1457.73962	1399.10791	21.99390	1482.26099	1579.21204	9.44612	1318.12427	1382.03735	4.86865	1370.84351	1460.89148	-104.67996	1282.40161	1481.97095	109.64999	1292.20667	1410.71863	-180.65617	1278.32312	1434.58972	204.15034	1291.77551	1330.90051	-78.05882	1294.58508	1334.80298	105.72073	1296.93994	1283.96228	-61.80782	1213.95837	1437.95618	-237.49873	1140.58215	1421.59448	-267.73141	979.31287	1392.01392	-198.34314	957.44031	1508.28198	-261.01447	916.19135	1492.00964	-289.22357	829.12866	1565.03809	-246.10315	793.16223	1566.16663	-287.69662	760.18585	1598.20105	-250.53777	747.23340	1617.22778	-234.69572	715.73499	1631.90405	-224.06287	678.00220	1597.27502	-304.26010	689.66620	1606.56409	-285.20090	641.23297	1600.68579	-267.51810	604.48083	1417.19336	266.96500	1149.32849	1370.36438	284.34964	1004.83588	1347.89539	205.27477	995.10992	1458.49695	261.79214	944.54987	1455.25671	298.55533	853.72308	1504.98364	239.34315	814.73047	1519.38867	286.14798	790.50824	1538.17444	242.41713	782.05750	1549.95105	218.58070	747.14911	1558.96851	209.32809	696.91736	1553.25293	283.43271	708.48846	1560.21912	276.23666	670.22345	1557.46057	256.58157	628.85327	1271.17542	16.56723	900.42542	1463.67883	-141.00038	969.95551	1454.48010	177.81331	952.12433	1488.45654	-157.47952	578.76099	1563.40369	-78.13128	498.76172	1513.47131	-111.97564	444.46613	1517.84033	-0.36785	444.11288	1509.85474	-54.16728	272.59937	1424.91284	-59.25602	61.12787	1447.57385	32.08749	83.74448	1368.55688	0.40806	38.58179	1567.99048	-36.83330	39.12982	1513.87097	6.84152	65.38444	1523.94531	217.54883	591.97968	1576.97021	201.43568	456.44302	1594.84143	78.84643	437.27457	1500.73999	143.31189	271.92365	1355.34424	160.13058	127.50458	1379.96521	71.84041	139.51430	1293.88086	106.56126	127.49992	1472.72144	127.33337	50.31889	1439.21716	92.87957	88.34007																																																																																																																															
437	3.633	1517.95618	28.49008	1562.03455	1616.91968	25.56121	1458.09863	1404.03955	23.64202	1482.59241	1583.60437	9.76829	1317.82471	1385.91565	5.74426	1371.42126	1464.20898	-105.88320	1282.32886	1485.01001	108.81431	1292.15588	1414.41296	-181.44041	1279.00366	1438.30981	202.75378	1292.37354	1334.37292	-78.41624	1295.19202	1339.48633	103.91765	1297.13135	1288.11450	-60.50558	1214.14172	1442.21802	-238.54980	1140.59778	1425.29138	-268.32462	980.05560	1399.66431	-197.39110	957.27844	1514.37622	-261.63278	917.45172	1499.80750	-292.19843	829.51630	1570.37976	-245.63071	793.94855	1572.35291	-288.24612	761.64160	1605.84607	-250.65652	748.80054	1623.80896	-234.80836	717.37299	1640.50916	-224.88588	680.34814	1604.47766	-305.15497	691.35065	1615.15723	-285.97598	643.28638	1610.00232	-268.37619	605.28864	1420.75232	267.27722	1149.91479	1374.50623	282.31747	1003.80377	1349.22009	204.93979	995.62750	1461.39282	261.11597	943.66718	1459.38708	299.26678	853.80664	1507.64771	238.49173	813.87659	1523.97034	284.90247	789.85126	1541.56702	241.30693	781.93414	1554.58105	216.66216	746.57428	1563.26611	209.13078	695.71729	1558.31946	282.97098	708.67596	1565.61145	278.01453	671.09778	1563.74194	258.51367	629.00800	1274.35681	15.98480	900.37775	1466.64404	-140.92752	970.08374	1459.41821	176.18233	953.09277	1490.80859	-158.04697	578.90485	1564.79895	-78.56133	498.80624	1514.87317	-112.58907	444.41110	1519.92859	-0.55070	443.82657	1509.33289	-53.05583	272.11935	1425.25977	-59.39961	61.15684	1444.89258	31.06432	83.14944	1369.19189	0.77247	38.71534	1568.28577	-36.89910	39.05992	1513.92480	6.86135	65.20998	1531.06458	216.87425	592.44824	1585.36475	200.32819	458.05765	1601.46338	76.24615	439.52942	1512.34851	142.15036	271.24036	1369.64563	159.08873	123.97765	1394.64868	69.70457	136.20436	1309.61487	105.40309	121.31549	1490.60168	127.24076	49.65494	1457.04041	92.74841	87.73647																																																																																																																															
438	3.642	1521.89539	28.50364	1561.61865	1620.90808	25.89891	1457.82666	1407.54724	22.74617	1482.22656	1588.36462	9.95236	1317.52588	1389.06958	6.25017	1371.55261	1468.35693	-105.96129	1282.38000	1488.52368	108.04288	1291.99451	1417.71765	-181.60391	1278.61450	1441.23633	202.78357	1293.05200	1337.76685	-78.18699	1294.42859	1343.28882	104.24830	1297.20422	1292.58179	-60.97335	1213.33655	1446.91565	-238.11261	1140.13867	1430.57019	-268.95456	979.90216	1404.48755	-199.28113	955.97070	1519.57556	-261.62576	918.28326	1507.18347	-290.72366	830.04504	1577.31714	-247.17989	795.46307	1579.71228	-288.33032	762.97894	1611.88086	-250.82387	750.57080	1631.27856	-235.63152	719.53796	1647.79590	-224.97469	682.47852	1613.78882	-305.56537	692.79626	1624.02527	-287.37155	644.13226	1618.84277	-267.71713	606.56555	1424.81812	268.26520	1149.75061	1378.42700	282.08304	1003.79193	1353.58301	203.25626	995.37152	1466.33264	259.89252	943.51147	1463.41614	297.79309	853.73767	1512.81274	237.13736	814.35455	1528.27502	283.11160	789.76465	1545.86731	239.78984	780.75781	1558.16760	216.67357	746.31158	1566.05957	209.08969	694.13342	1563.57983	284.22116	709.54974	1571.03430	277.32935	671.28217	1569.75488	257.68713	629.41602	1279.35706	17.05546	900.63129	1470.01770	-141.26688	969.96057	1463.43127	175.40344	953.32349	1492.77771	-160.00473	579.16309	1566.55408	-79.75918	497.94241	1515.77356	-112.64091	444.47528	1521.52271	-0.16546	443.56900	1509.98645	-52.98540	271.98911	1425.45264	-59.30019	61.19941	1444.82507	30.89187	83.32639	1368.91138	1.42650	37.01096	1568.19226	-36.94342	38.98578	1514.06519	6.85556	64.97092	1536.33521	215.83829	592.54657	1591.59814	199.32574	458.12115	1608.80823	75.82984	440.97308	1523.31946	141.79672	270.68121	1384.31702	158.24696	119.52635	1409.62280	69.05266	132.04956	1325.64514	103.42033	115.10451	1507.63245	126.57855	49.16224	1473.08325	90.85873	85.76978																																																																																																																															
